/* XPM */
static char * left_inactive_xpm[] = {
"8 28 4 1",
" 	c None",
".	c #212121",
"+	c #BFBFBF",
"@	c #000000",
".....++@",
".....++@",
".....++@",
".....++@",
".....++@",
".....++@",
".....++@",
".....++@",
".....++@",
".....++@",
".....++@",
".....++@",
".....++@",
".....++@",
".....++@",
".....++@",
".....++@",
".....++@",
".....++@",
".....++@",
".....++@",
".....++@",
".....++@",
".....++@",
".....++@",
".....++@",
".....++@",
".....++@"};
