/* XPM */
static char * maximize_toggled_active_xpm[] = {
"26 26 3 1",
" 	c None",
".	c #212121",
"+	c #FFFFFF",
"                          ",
"                          ",
"                          ",
"                          ",
" ........................ ",
"..........................",
"..........................",
"..........................",
"..........................",
"...........+++++++........",
"...........+++++++........",
"................++........",
"........+++++++.++........",
"........+++++++.++........",
"........++...++.++........",
"........++...++.++........",
"........++...++...........",
"........+++++++...........",
"........+++++++...........",
"..........................",
"..........................",
"..........................",
"..........................",
"..........................",
"                          ",
"                          "};
