/* XPM */
static char * right_active_xpm[] = {
"8 28 4 1",
" 	c None",
".	c #000000",
"+	c #FFD700 s active_color_1",
"@	c #212121",
".++@@@@@",
".++@@@@@",
".++@@@@@",
".++@@@@@",
".++@@@@@",
".++@@@@@",
".++@@@@@",
".++@@@@@",
".++@@@@@",
".++@@@@@",
".++@@@@@",
".++@@@@@",
".++@@@@@",
".++@@@@@",
".++@@@@@",
".++@@@@@",
".++@@@@@",
".++@@@@@",
".++@@@@@",
".++@@@@@",
".++@@@@@",
".++@@@@@",
".++@@@@@",
".++@@@@@",
".++@@@@@",
".++@@@@@",
".++@@@@@",
".++@@@@@"};
