/* XPM */
static char * right_inactive_xpm[] = {
"8 28 4 1",
" 	c None",
".	c #000000",
"+	c #BFBFBF",
"@	c #212121",
".++@@@@@",
".++@@@@@",
".++@@@@@",
".++@@@@@",
".++@@@@@",
".++@@@@@",
".++@@@@@",
".++@@@@@",
".++@@@@@",
".++@@@@@",
".++@@@@@",
".++@@@@@",
".++@@@@@",
".++@@@@@",
".++@@@@@",
".++@@@@@",
".++@@@@@",
".++@@@@@",
".++@@@@@",
".++@@@@@",
".++@@@@@",
".++@@@@@",
".++@@@@@",
".++@@@@@",
".++@@@@@",
".++@@@@@",
".++@@@@@",
".++@@@@@"};
