/* XPM */
static char * shade_toggled_inactive_xpm[] = {
"26 26 3 1",
" 	c None",
".	c #212121",
"+	c #FFFFFF",
"                          ",
"                          ",
"                          ",
"                          ",
" ........................ ",
"..........................",
"..........................",
"..........................",
"..........................",
"........++++++++++........",
"........++++++++++........",
"..........................",
"........++......++........",
"........+++....+++........",
".........+++..+++.........",
"..........++++++..........",
"...........++++...........",
"............++............",
"..........................",
"..........................",
"..........................",
"..........................",
"..........................",
"..........................",
"                          ",
"                          "};
