/* XPM */
static char * title_4_active_xpm[] = {
"8 28 4 1",
" 	c None",
".	c #212121",
"+	c #FFD700 s active_color_1",
"@	c #000000",
"........",
"........",
"........",
"........",
"........",
"+++++++.",
"++++++++",
"++++++++",
"++++++++",
"++++++++",
"++++++++",
"++++++++",
"++++++++",
"++++++++",
"++++++++",
"++++++++",
"++++++++",
"++++++++",
"++++++++",
"++++++++",
"++++++++",
"++++++++",
"++++++++",
"++++++++",
"++++++++",
"++++++++",
"++++++++",
"@@@@@@@@"};
