/* XPM */
static char * top_right_active_xpm[] = {
"8 56 4 1",
" 	c None",
".	c #212121",
"+	c #FFD700 s active_color_1",
"@	c #000000",
"........",
"........",
"........",
"........",
"........",
"........",
"........",
"........",
"........",
"........",
"........",
"........",
"........",
"........",
"........",
"........",
"........",
"........",
"........",
"........",
"........",
"........",
"........",
"........",
"........",
"++......",
"+++.....",
"@++.....",
"@++.....",
"@++.....",
"@++.....",
"@++.....",
"@++.....",
"@++.....",
"@++.....",
"@++.....",
"@++.....",
"@++.....",
"@++.....",
"@++.....",
"@++.....",
"@++.....",
"@++.....",
"@++.....",
"@++.....",
"@++.....",
"@++.....",
"@++.....",
"@++.....",
"@++.....",
"@++.....",
"@++.....",
"@++.....",
"@++.....",
"@++.....",
"@++....."};
